<svg xmlns="http://www.w3.org/2000/svg" xmlns:svg="http://www.w3.org/2000/svg">
 <g display="inline" class="layer">
  <path fill="#61dafb" d="m536.27461,231.54496l-103.81929,-103.81896c-14.27579,-14.27508 -37.63473,-14.27508 -51.91019,0l-103.8189,103.81896c-14.27546,14.27546 -14.27546,37.63434 0,51.90981l103.8189,103.81929c14.27546,14.27508 37.6344,14.27508 51.91019,0l103.81929,-103.81929c14.27437,-14.27546 14.27437,-37.63434 0,-51.90981z" id="svg_4"/>
  <path fill="#61dafb" d="m516.61749,330.91152l-0.00023,-146.82241c-0.0005,-20.18852 -16.51776,-36.70578 -36.70605,-36.70605l-146.82214,0.00004c-20.18856,0 -36.70578,16.51722 -36.70578,36.70578l-0.00027,146.82237c0.00027,20.18828 16.51753,36.70554 36.70605,36.70605l146.82264,0c20.18778,-0.00078 36.705,-16.518 36.70578,-36.70578z" id="svg_7"/>
  <path stroke-width="3" stroke="#ffffff" fill="#ffffff" d="m371.07618,314.45927l0,-113.91842l44.60518,0c19.49839,0 32.6949,11.36775 32.6949,28.41943c0,11.85639 -8.68392,22.89364 -19.65647,24.8661l0,0.63233c15.47437,1.97246 25.41939,12.86959 25.41939,28.02423c0,20.05167 -14.37137,31.97634 -38.60514,31.97634l-44.45792,0l0.00005,0zm14.20972,-64.81499l22.73556,0c16.8145,0 25.97267,-6.71147 25.97267,-19.0421c0,-11.28871 -7.73537,-17.52593 -21.55708,-17.52593l-27.15115,0l0,36.56803zm28.10327,52.26157c17.13072,0 26.13076,-6.94859 26.13076,-20.11995c0,-13.17136 -9.31625,-19.89359 -27.47094,-19.89359l-26.76314,0l0,40.02431l28.10327,-0.01077l0.00005,0z" id="svg_5"/>
 </g>
</svg>