<?xml version="1.0" encoding="UTF-8" standalone="no"?><!DOCTYPE svg PUBLIC "-//W3C//DTD SVG 1.1//EN" "http://www.w3.org/Graphics/SVG/1.1/DTD/svg11.dtd">
<svg height="100%" style="fill-rule:evenodd;clip-rule:evenodd;stroke-linecap:round;stroke-linejoin:round;" xmlns:xlink="http://www.w3.org/1999/xlink" xmlns="http://www.w3.org/2000/svg" xml:space="preserve" width="100%" xmlns:vectornator="http://vectornator.io" version="1.1" viewBox="0 0 766 766">
<g id="Untitled" vectornator:layerName="Untitled">
<path d="M112.668+135.96C135.819+164.744+132.853+175.968+124.954+202.162C121.82+212.57+112.872+226.078+103.365+237.584L29.1408+311.808C15.2765+325.673+6.41242+342.684+2.4475+360.599C1.82479+363.412+1.32352+366.235+0.944898+369.084C0.571462+371.804+0.300403+374.522+0.149403+377.26C0.1408+377.429+0.135057+377.599+0.127306+377.768C-1.23929+405.033+8.39531+432.748+29.0966+453.451L101.752+526.106C111.592+537.944+120.598+551.51+123.517+561.704C130.823+587.01+133.593+598.038+110.591+627.266L135.936+652.612C164.72+629.46+175.944+632.426+202.139+640.326C212.546+643.459+226.055+652.408+237.561+661.914L311.763+736.116C327.856+752.209+348.197+761.6+369.259+764.357C370.668+764.548+372.088+764.622+373.502+764.754C375.021+764.888+376.531+765.087+378.054+765.152C405.254+766.461+432.863+756.833+453.515+736.183L526.171+663.528C538.009+653.688+551.575+644.681+561.769+641.762C587.075+634.456+598.103+631.686+627.331+654.689L652.676+629.343C629.525+600.559+632.491+589.335+640.39+563.14C643.524+552.733+652.495+539.203+662.001+527.697L736.203+453.495C756.916+432.781+766.529+405.068+765.151+377.79C765.149+377.761+765.152+377.731+765.151+377.702C765.126+377.171+765.051+376.641+765.018+376.111C764.863+373.802+764.691+371.489+764.377+369.194C761.613+348.148+752.217+327.823+736.137+311.742L663.482+239.087C653.642+227.248+644.635+213.683+641.716+203.488C634.411+178.182+631.641+167.154+654.643+137.926L629.298+112.581C600.513+135.732+589.289+132.766+563.095+124.867C552.688+121.733+539.179+112.785+527.673+103.278L453.471+29.076C432.762+8.36757+405.039-1.24485+377.767+0.128787C374.861+0.275119+371.968+0.505386+369.082+0.902185C366.24+1.28047+363.426+1.80569+360.619+2.42688C342.705+6.39168+325.693+15.2566+311.829+29.1202L239.174+101.775C227.335+111.615+213.77+120.622+203.575+123.541C178.269+130.847+167.241+133.616+138.013+110.614L112.668+135.96Z" opacity="1" fill="#61dafb"/>
<path stroke="#ffffff" stroke-width="5" d="M289.405+541.17L289.405+224.1L413.555+224.1C467.825+224.1+504.555+255.74+504.555+303.2C504.555+336.2+480.385+366.92+449.845+372.41L449.845+374.17C492.915+379.66+520.595+409.99+520.595+452.17C520.595+507.98+480.595+541.17+413.145+541.17L289.405+541.17ZM326.955+360.77L390.235+360.77C437.035+360.77+462.525+342.09+462.525+307.77C462.525+276.35+440.995+258.99+402.525+258.99L326.955+258.99L326.955+360.77ZM405.175+506.23C452.855+506.23+477.905+486.89+477.905+450.23C477.905+413.57+451.975+394.86+401.445+394.86L326.955+394.86L326.955+506.26L405.175+506.23Z" fill="#ffffff" stroke-linecap="butt" opacity="1" stroke-linejoin="round"/>
<path d="M329.695-1.54688L283.96-0.804155" opacity="1" fill="#61dafb"/>
</g>
</svg>
