<?xml version="1.0" encoding="utf-8"?>
<svg viewBox="0 0 782 782" xmlns="http://www.w3.org/2000/svg">
  <path fill="#61dafb" d="M 746.536 324.425 C 783.139 361.261 783.139 420.738 746.536 457.574 L 457.575 746.535 C 420.738 783.138 361.262 783.138 324.427 746.535 L 35.466 457.574 C -1.138 420.738 -1.138 361.261 35.466 324.425 L 324.427 35.465 C 361.262 -1.138 420.738 -1.138 457.575 35.465 L 746.536 324.425 M 752.203 318.759 L 463.242 29.799 C 423.508 -9.933 358.493 -9.933 318.76 29.799 L 29.8 318.759 C -9.933 358.492 -9.933 423.507 29.8 463.24 L 318.76 752.201 C 358.493 791.933 423.508 791.933 463.242 752.201 L 752.203 463.24 C 791.933 423.507 791.933 358.492 752.203 318.759 Z"/>
  <path fill="#61dafb" d="M 292.405 549.535 L 292.405 232.465 L 416.555 232.465 C 470.825 232.465 507.555 264.105 507.555 311.565 C 507.555 344.565 483.385 375.285 452.845 380.775 L 452.845 382.535 C 495.915 388.025 523.595 418.355 523.595 460.535 C 523.595 516.345 483.595 549.535 416.145 549.535 Z M 331.955 369.135 L 395.235 369.135 C 442.035 369.135 467.525 350.455 467.525 316.135 C 467.525 284.715 445.995 267.355 407.525 267.355 L 331.955 267.355 Z M 410.175 514.595 C 457.855 514.595 482.905 495.255 482.905 458.595 C 482.905 421.935 456.975 403.225 406.445 403.225 L 331.955 403.225 L 331.955 514.625 Z"/>
</svg>